<?xml version="1.0" encoding="UTF-8" standalone="no"?>
<!-- Created with Inkscape (http://www.inkscape.org/) -->

<svg
   xmlns:dc="http://purl.org/dc/elements/1.1/"
   xmlns:cc="http://creativecommons.org/ns#"
   xmlns:rdf="http://www.w3.org/1999/02/22-rdf-syntax-ns#"
   xmlns:svg="http://www.w3.org/2000/svg"
   xmlns="http://www.w3.org/2000/svg"
   xmlns:sodipodi="http://sodipodi.sourceforge.net/DTD/sodipodi-0.dtd"
   xmlns:inkscape="http://www.inkscape.org/namespaces/inkscape"
   width="101.68465mm"
   height="101.68465mm"
   viewBox="0 0 101.68465 101.68465"
   version="1.1"
   id="svg8"
   inkscape:version="0.92.5 (2060ec1f9f, 2020-04-08)"
   sodipodi:docname="FaceplateLaserCut-flipped.svg">
  <defs
     id="defs2" />
  <sodipodi:namedview
     id="base"
     pagecolor="#ffffff"
     bordercolor="#666666"
     borderopacity="1.0"
     inkscape:pageopacity="0.0"
     inkscape:pageshadow="2"
     inkscape:zoom="0.98994949"
     inkscape:cx="119.32432"
     inkscape:cy="278.72742"
     inkscape:document-units="mm"
     inkscape:current-layer="layer1"
     showgrid="false"
     inkscape:window-width="1920"
     inkscape:window-height="1015"
     inkscape:window-x="0"
     inkscape:window-y="0"
     inkscape:window-maximized="1"
     fit-margin-top="0"
     fit-margin-left="0"
     fit-margin-right="0"
     fit-margin-bottom="0" />
  <metadata
     id="metadata5">
    <rdf:RDF>
      <cc:Work
         rdf:about="">
        <dc:format>image/svg+xml</dc:format>
        <dc:type
           rdf:resource="http://purl.org/dc/dcmitype/StillImage" />
        <dc:title></dc:title>
      </cc:Work>
    </rdf:RDF>
  </metadata>
  <g
     inkscape:label="Layer 1"
     inkscape:groupmode="layer"
     id="layer1"
     transform="translate(-0.15767196,-195.15768)">
    <path
       style="opacity:1;fill:#ffffff;fill-opacity:1;stroke:#00ff00;stroke-width:0.5;stroke-miterlimit:4;stroke-dasharray:none;stroke-opacity:1"
       d="M 101.59233,195.40768 H 0.40767196 V 296.59233 H 101.59233 Z"
       id="rect815"
       inkscape:connector-curvature="0" />
    <path
       style="opacity:1;fill:#ffffff;fill-opacity:1;stroke:#ff0000;stroke-width:0.19825071;stroke-miterlimit:4;stroke-dasharray:none;stroke-opacity:1"
       d="m 93.099127,290 a 1.9008746,1.9008746 0 0 0 1.900875,1.90087 A 1.9008746,1.9008746 0 0 0 96.900877,290 1.9008746,1.9008746 0 0 0 95.000002,288.09913 1.9008746,1.9008746 0 0 0 93.099127,290 Z"
       id="path817"
       inkscape:connector-curvature="0" />
    <path
       style="opacity:1;fill:#ffffff;fill-opacity:1;stroke:#ff0000;stroke-width:0.19825071;stroke-miterlimit:4;stroke-dasharray:none;stroke-opacity:1"
       d="M 5.099127,290 A 1.9008746,1.9008746 0 0 0 7.000002,291.90087 1.9008746,1.9008746 0 0 0 8.900877,290 1.9008746,1.9008746 0 0 0 7.000002,288.09913 1.9008746,1.9008746 0 0 0 5.099127,290 Z"
       id="path817-3"
       inkscape:connector-curvature="0" />
    <path
       style="opacity:1;fill:#ffffff;fill-opacity:1;stroke:#ff0000;stroke-width:0.19825071;stroke-miterlimit:4;stroke-dasharray:none;stroke-opacity:1"
       d="M 5.099127,202 A 1.9008746,1.9008746 0 0 0 7.000002,203.90087 1.9008746,1.9008746 0 0 0 8.900877,202 1.9008746,1.9008746 0 0 0 7.000002,200.09913 1.9008746,1.9008746 0 0 0 5.099127,202 Z"
       id="path817-3-6"
       inkscape:connector-curvature="0" />
    <path
       style="opacity:1;fill:#ffffff;fill-opacity:1;stroke:#ff0000;stroke-width:0.19825071;stroke-miterlimit:4;stroke-dasharray:none;stroke-opacity:1"
       d="m 93.099127,202 a 1.9008746,1.9008746 0 0 0 1.900875,1.90087 A 1.9008746,1.9008746 0 0 0 96.900877,202 1.9008746,1.9008746 0 0 0 95.000002,200.09913 1.9008746,1.9008746 0 0 0 93.099127,202 Z"
       id="path817-3-6-7"
       inkscape:connector-curvature="0" />
    <path
       style="opacity:1;fill:#ffffff;fill-opacity:1;stroke:#0000ff;stroke-width:0.5;stroke-miterlimit:4;stroke-dasharray:none;stroke-opacity:1"
       d="m 91.508602,237.49141 h -23.0172 v 49.0172 h 23.0172 z"
       id="rect883"
       inkscape:connector-curvature="0" />
    <path
       style="opacity:1;fill:#ffffff;fill-opacity:1;stroke:#0000ff;stroke-width:0.5;stroke-miterlimit:4;stroke-dasharray:none;stroke-opacity:1"
       d="M 62.907202,240.0928 H 40.092806 v 6.8144 h 22.814396 z"
       id="rect883-5"
       inkscape:connector-curvature="0" />
    <path
       style="opacity:1;fill:#ffffff;fill-opacity:1;stroke:#0000ff;stroke-width:0.5;stroke-miterlimit:4;stroke-dasharray:none;stroke-opacity:1"
       d="M 41.461672,256.53833 H 12.538334 v 24.92334 h 28.923338 z"
       id="rect883-5-3"
       inkscape:connector-curvature="0" />
    <path
       style="opacity:1;fill:#ffffff;fill-opacity:1;stroke:#0000ff;stroke-width:0.5;stroke-miterlimit:4;stroke-dasharray:none;stroke-opacity:1"
       d="M 34.677523,202.32248 H 11.32247 v 51.35505 h 23.355053 z"
       id="rect883-5-3-5"
       inkscape:connector-curvature="0" />
    <path
       style="opacity:1;fill:#ffffff;fill-opacity:1;stroke:#0000ff;stroke-width:0.5;stroke-miterlimit:4;stroke-dasharray:none;stroke-opacity:1"
       d="m 63.814985,201.18501 h -25.62997 v 25.62997 h 25.62997 z"
       id="rect883-5-3-5-6"
       inkscape:connector-curvature="0" />
    <path
       style="opacity:1;fill:#ffffff;fill-opacity:1;stroke:#0000ff;stroke-width:0.24350841;stroke-miterlimit:4;stroke-dasharray:none;stroke-opacity:1"
       d="m 76.878246,199.12175 h -4.756491 v 32.75649 h 4.756491 z"
       id="rect883-5-3-5-6-2"
       inkscape:connector-curvature="0" />
    <path
       style="opacity:1;fill:#ffffff;fill-opacity:1;stroke:#0000ff;stroke-width:0.5;stroke-miterlimit:4;stroke-dasharray:none;stroke-opacity:1"
       d="m 90.123909,226.5 a 2.3760934,2.3760934 0 0 0 2.376093,2.37609 A 2.3760934,2.3760934 0 0 0 94.876095,226.5 2.3760934,2.3760934 0 0 0 92.500002,224.12391 2.3760934,2.3760934 0 0 0 90.123909,226.5 Z"
       id="path817-3-6-7-9"
       inkscape:connector-curvature="0" />
    <g
       aria-label="Arduino"
       style="font-style:normal;font-weight:normal;font-size:4.23333311px;line-height:1.25;font-family:sans-serif;letter-spacing:0px;word-spacing:0px;fill:#000000;fill-opacity:1;stroke:none;stroke-width:0.26458332"
       id="text977"
       transform="matrix(-1,0,0,1,102,0)">
      <path
         d="m 13.715226,267.15247 -0.660769,1.7918 h 1.32395 z m -0.274919,-0.4799 h 0.552249 l 1.372182,3.60047 h -0.506429 l -0.327973,-0.92363 h -1.622985 l -0.327973,0.92363 h -0.513664 z"
         style="font-size:4.93888903px;stroke-width:0.26458332"
         id="path1137"
         inkscape:connector-curvature="0" />
      <path
         d="m 17.436274,267.98688 q -0.07476,-0.0434 -0.163987,-0.0627 -0.08682,-0.0217 -0.192925,-0.0217 -0.376205,0 -0.578776,0.24598 -0.20016,0.24357 -0.20016,0.70177 v 1.42282 h -0.44614 v -2.70095 h 0.44614 v 0.41961 q 0.139871,-0.24598 0.364146,-0.36415 0.224276,-0.12058 0.545014,-0.12058 0.04582,0 0.101286,0.007 0.05547,0.005 0.12299,0.0169 z"
         style="font-size:4.93888903px;stroke-width:0.26458332"
         id="path1139"
         inkscape:connector-curvature="0" />
      <path
         d="m 19.592214,267.98205 v -1.46141 h 0.443729 v 3.7524 h -0.443729 v -0.40514 q -0.13987,0.24115 -0.3545,0.35932 -0.212218,0.11576 -0.511252,0.11576 -0.489548,0 -0.798229,-0.39068 -0.306269,-0.39067 -0.306269,-1.02733 0,-0.63665 0.306269,-1.02732 0.308681,-0.39068 0.798229,-0.39068 0.299034,0 0.511252,0.11817 0.21463,0.11576 0.3545,0.35691 z m -1.512052,0.94292 q 0,0.48955 0.20016,0.76929 0.202572,0.27733 0.55466,0.27733 0.352089,0 0.554661,-0.27733 0.202571,-0.27974 0.202571,-0.76929 0,-0.48954 -0.202571,-0.76687 -0.202572,-0.27975 -0.554661,-0.27975 -0.352088,0 -0.55466,0.27975 -0.20016,0.27733 -0.20016,0.76687 z"
         style="font-size:4.93888903px;stroke-width:0.26458332"
         id="path1141"
         inkscape:connector-curvature="0" />
      <path
         d="m 20.904107,269.20713 v -1.63504 h 0.443728 v 1.61816 q 0,0.38344 0.149517,0.57636 0.149517,0.19052 0.448552,0.19052 0.359323,0 0.566718,-0.2291 0.209806,-0.2291 0.209806,-0.6246 v -1.53134 h 0.443729 v 2.70095 h -0.443729 v -0.41479 q -0.161575,0.24598 -0.376204,0.36656 -0.212218,0.11817 -0.494371,0.11817 -0.465433,0 -0.706589,-0.28939 -0.241157,-0.28939 -0.241157,-0.84646 z m 1.116555,-1.70016 z"
         style="font-size:4.93888903px;stroke-width:0.26458332"
         id="path1143"
         inkscape:connector-curvature="0" />
      <path
         d="m 24.08014,267.57209 h 0.443729 v 2.70095 H 24.08014 Z m 0,-1.05145 h 0.443729 v 0.5619 H 24.08014 Z"
         style="font-size:4.93888903px;stroke-width:0.26458332"
         id="path1145"
         inkscape:connector-curvature="0" />
      <path
         d="m 27.697491,268.64282 v 1.63022 h -0.443728 v -1.61575 q 0,-0.38344 -0.149517,-0.57395 -0.149518,-0.19052 -0.448552,-0.19052 -0.359323,0 -0.566718,0.2291 -0.207395,0.2291 -0.207395,0.6246 v 1.52652 h -0.44614 v -2.70095 h 0.44614 v 0.41961 q 0.159164,-0.24357 0.373793,-0.36415 0.217041,-0.12058 0.499194,-0.12058 0.465433,0 0.704178,0.28939 0.238745,0.28698 0.238745,0.84646 z"
         style="font-size:4.93888903px;stroke-width:0.26458332"
         id="path1147"
         inkscape:connector-curvature="0" />
      <path
         d="m 29.629155,267.88318 q -0.356912,0 -0.564307,0.27974 -0.207394,0.27733 -0.207394,0.76205 0,0.48473 0.204983,0.76447 0.207395,0.27733 0.566718,0.27733 0.3545,0 0.561895,-0.27974 0.207395,-0.27974 0.207395,-0.76206 0,-0.4799 -0.207395,-0.75964 -0.207395,-0.28215 -0.561895,-0.28215 z m 0,-0.37621 q 0.578776,0 0.909161,0.37621 0.330384,0.3762 0.330384,1.04179 0,0.66319 -0.330384,1.0418 -0.330385,0.37621 -0.909161,0.37621 -0.581188,0 -0.911572,-0.37621 -0.327973,-0.37861 -0.327973,-1.0418 0,-0.66559 0.327973,-1.04179 0.330384,-0.37621 0.911572,-0.37621 z"
         style="font-size:4.93888903px;stroke-width:0.26458332"
         id="path1149"
         inkscape:connector-curvature="0" />
    </g>
    <g
       aria-label="LoRA
Radio"
       style="font-style:normal;font-weight:normal;font-size:4.93888903px;line-height:1.25;font-family:sans-serif;letter-spacing:0px;word-spacing:0px;fill:#000000;fill-opacity:1;stroke:none;stroke-width:0.26458332"
       id="text981"
       transform="matrix(-1,0,0,1,102,0)">
      <path
         d="m 14.38274,241.28198 h 0.487136 v 3.1905 h 1.75321 v 0.40997 H 14.38274 Z"
         style="font-size:4.93888903px;stroke-width:0.26458332"
         id="path1118"
         inkscape:connector-curvature="0" />
      <path
         d="m 18.074849,242.49258 q -0.356912,0 -0.564307,0.27975 -0.207395,0.27733 -0.207395,0.76205 0,0.48473 0.204984,0.76447 0.207394,0.27733 0.566718,0.27733 0.3545,0 0.561895,-0.27974 0.207395,-0.27975 0.207395,-0.76206 0,-0.4799 -0.207395,-0.75964 -0.207395,-0.28216 -0.561895,-0.28216 z m 0,-0.3762 q 0.578776,0 0.909161,0.3762 0.330384,0.37621 0.330384,1.0418 0,0.66318 -0.330384,1.0418 -0.330385,0.3762 -0.909161,0.3762 -0.581188,0 -0.911572,-0.3762 -0.327974,-0.37862 -0.327974,-1.0418 0,-0.66559 0.327974,-1.0418 0.330384,-0.3762 0.911572,-0.3762 z"
         style="font-size:4.93888903px;stroke-width:0.26458332"
         id="path1120"
         inkscape:connector-curvature="0" />
      <path
         d="m 21.776604,243.19435 q 0.156752,0.0531 0.303858,0.22669 0.149517,0.17363 0.299034,0.47749 l 0.494371,0.98392 h -0.52331 l -0.460609,-0.92363 q -0.178456,-0.36174 -0.347266,-0.47991 -0.166398,-0.11816 -0.455786,-0.11816 h -0.530545 v 1.5217 h -0.487136 v -3.60047 h 1.099674 q 0.617361,0 0.921219,0.25803 0.303857,0.25804 0.303857,0.77894 0,0.34003 -0.159163,0.56431 -0.156752,0.22427 -0.458198,0.31109 z m -1.220253,-1.51205 v 1.27813 h 0.612538 q 0.352089,0 0.530545,-0.16158 0.180868,-0.16398 0.180868,-0.4799 0,-0.31591 -0.180868,-0.47508 -0.178456,-0.16157 -0.530545,-0.16157 z"
         style="font-size:4.93888903px;stroke-width:0.26458332"
         id="path1122"
         inkscape:connector-curvature="0" />
      <path
         d="m 24.504086,241.76188 -0.660769,1.79179 h 1.32395 z m -0.274918,-0.4799 h 0.552249 l 1.372181,3.60047 h -0.506429 l -0.327973,-0.92363 h -1.622985 l -0.327973,0.92363 h -0.513663 z"
         style="font-size:4.93888903px;stroke-width:0.26458332"
         id="path1124"
         inkscape:connector-curvature="0" />
      <path
         d="m 16.090129,249.36796 q 0.156752,0.0531 0.303858,0.22669 0.149517,0.17363 0.299034,0.47749 l 0.494371,0.98392 h -0.52331 l -0.460609,-0.92363 q -0.178456,-0.36174 -0.347266,-0.4799 -0.166398,-0.11817 -0.455786,-0.11817 h -0.530545 v 1.5217 H 14.38274 v -3.60047 h 1.099674 q 0.617362,0 0.921219,0.25804 0.303857,0.25803 0.303857,0.77893 0,0.34003 -0.159163,0.56431 -0.156752,0.22427 -0.458198,0.31109 z m -1.220253,-1.51205 v 1.27813 h 0.612538 q 0.352089,0 0.530545,-0.16158 0.180868,-0.16398 0.180868,-0.4799 0,-0.31591 -0.180868,-0.47508 -0.178456,-0.16157 -0.530545,-0.16157 z"
         style="font-size:4.93888903px;stroke-width:0.26458332"
         id="path1126"
         inkscape:connector-curvature="0" />
      <path
         d="m 18.914074,249.69835 q -0.537779,0 -0.745174,0.12299 -0.207395,0.12299 -0.207395,0.41961 0,0.23633 0.154341,0.3762 0.156751,0.13746 0.424435,0.13746 0.36897,0 0.590834,-0.26045 0.224276,-0.26286 0.224276,-0.69694 v -0.0989 z m 0.885045,-0.18328 v 1.54099 h -0.443728 v -0.40997 q -0.151929,0.24598 -0.378616,0.36415 -0.226687,0.11575 -0.55466,0.11575 -0.41479,0 -0.66077,-0.23151 -0.243568,-0.23392 -0.243568,-0.62459 0,-0.45579 0.303857,-0.6873 0.306269,-0.23151 0.911573,-0.23151 h 0.622184 v -0.0434 q 0,-0.30627 -0.202572,-0.47267 -0.20016,-0.16881 -0.564306,-0.16881 -0.231511,0 -0.450963,0.0555 -0.219453,0.0555 -0.422025,0.1664 v -0.40997 q 0.243569,-0.0941 0.472668,-0.13987 0.229098,-0.0482 0.446139,-0.0482 0.586011,0 0.875399,0.30386 0.289388,0.30386 0.289388,0.92122 z"
         style="font-size:4.93888903px;stroke-width:0.26458332"
         id="path1128"
         inkscape:connector-curvature="0" />
      <path
         d="m 22.490428,248.76507 v -1.46141 h 0.443728 v 3.7524 h -0.443728 v -0.40515 q -0.139871,0.24116 -0.3545,0.35933 -0.212218,0.11575 -0.511253,0.11575 -0.489548,0 -0.798228,-0.39067 -0.306269,-0.39067 -0.306269,-1.02733 0,-0.63665 0.306269,-1.02733 0.30868,-0.39067 0.798228,-0.39067 0.299035,0 0.511253,0.11817 0.214629,0.11575 0.3545,0.35691 z m -1.512053,0.94292 q 0,0.48955 0.20016,0.76929 0.202572,0.27733 0.554661,0.27733 0.352089,0 0.55466,-0.27733 0.202572,-0.27974 0.202572,-0.76929 0,-0.48955 -0.202572,-0.76688 -0.202571,-0.27974 -0.55466,-0.27974 -0.352089,0 -0.554661,0.27974 -0.20016,0.27733 -0.20016,0.76688 z"
         style="font-size:4.93888903px;stroke-width:0.26458332"
         id="path1130"
         inkscape:connector-curvature="0" />
      <path
         d="m 23.84814,248.3551 h 0.443728 v 2.70096 H 23.84814 Z m 0,-1.05144 h 0.443728 v 0.56189 H 23.84814 Z"
         style="font-size:4.93888903px;stroke-width:0.26458332"
         id="path1132"
         inkscape:connector-curvature="0" />
      <path
         d="m 26.266942,248.66619 q -0.356912,0 -0.564307,0.27975 -0.207394,0.27733 -0.207394,0.76205 0,0.48473 0.204983,0.76447 0.207394,0.27733 0.566718,0.27733 0.3545,0 0.561895,-0.27974 0.207395,-0.27974 0.207395,-0.76206 0,-0.4799 -0.207395,-0.75964 -0.207395,-0.28216 -0.561895,-0.28216 z m 0,-0.3762 q 0.578776,0 0.909161,0.3762 0.330384,0.37621 0.330384,1.0418 0,0.66318 -0.330384,1.0418 -0.330385,0.3762 -0.909161,0.3762 -0.581188,0 -0.911572,-0.3762 -0.327973,-0.37862 -0.327973,-1.0418 0,-0.66559 0.327973,-1.0418 0.330384,-0.3762 0.911572,-0.3762 z"
         style="font-size:4.93888903px;stroke-width:0.26458332"
         id="path1134"
         inkscape:connector-curvature="0" />
    </g>
    <g
       aria-label="Status"
       style="font-style:normal;font-weight:normal;font-size:4.93888903px;line-height:1.25;font-family:sans-serif;letter-spacing:0px;word-spacing:0px;fill:#000000;fill-opacity:1;stroke:none;stroke-width:0.26458332"
       id="text987"
       transform="matrix(-1,0,0,1,102,0)">
      <path
         d="m 4.7812335,218.94949 v 0.47508 q -0.2773302,-0.13264 -0.52331,-0.19775 -0.2459798,-0.0651 -0.4750787,-0.0651 -0.3979085,0 -0.6149496,0.15434 -0.2146294,0.15434 -0.2146294,0.4389 0,0.23875 0.1422824,0.36174 0.1446941,0.12058 0.5450142,0.19534 l 0.2942111,0.0603 q 0.5450141,0.10369 0.8030518,0.36655 0.2604492,0.26045 0.2604492,0.69936 0,0.52331 -0.3520887,0.7934 -0.3496772,0.2701 -1.0273275,0.2701 -0.2556261,0 -0.5450142,-0.0579 -0.2869764,-0.0579 -0.595657,-0.17122 v -0.50161 q 0.2966227,0.1664 0.5811876,0.25081 0.2845649,0.0844 0.5594836,0.0844 0.417201,0 0.6438883,-0.16398 0.2266873,-0.16399 0.2266873,-0.46785 0,-0.26527 -0.1639865,-0.41479 -0.161575,-0.14952 -0.5329563,-0.22427 l -0.2966228,-0.0579 q -0.5450141,-0.10852 -0.7885823,-0.34003 -0.2435683,-0.23151 -0.2435683,-0.64389 0,-0.47749 0.3352078,-0.75241 0.3376194,-0.27492 0.9284533,-0.27492 0.2532145,0 0.5160753,0.0458 0.2628608,0.0458 0.5377794,0.13746 z"
         style="font-size:4.93888903px;stroke-width:0.26458332"
         id="path1105"
         inkscape:connector-curvature="0" />
      <path
         d="m 6.1775307,218.96396 v 0.76688 h 0.9139839 v 0.34485 H 6.1775307 v 1.46624 q 0,0.33038 0.089228,0.42443 0.09164,0.094 0.3689697,0.094 h 0.4557862 v 0.37138 H 6.6357284 q -0.5136637,0 -0.7090006,-0.19051 -0.195337,-0.19293 -0.195337,-0.69935 v -1.46624 H 5.4058293 v -0.34485 h 0.3255615 v -0.76688 z"
         style="font-size:4.93888903px;stroke-width:0.26458332"
         id="path1107"
         inkscape:connector-curvature="0" />
      <path
         d="m 8.9026012,221.07408 q -0.5377794,0 -0.7451741,0.12299 -0.2073948,0.12299 -0.2073948,0.41961 0,0.23634 0.1543403,0.37621 0.1567518,0.13746 0.4244358,0.13746 0.3689697,0 0.5908339,-0.26045 0.2242757,-0.26286 0.2242757,-0.69694 v -0.0989 z m 0.8850451,-0.18328 v 1.54099 H 9.343918 v -0.40996 q -0.1519287,0.24598 -0.378616,0.36414 -0.2266873,0.11576 -0.5546604,0.11576 -0.4147895,0 -0.6607693,-0.23151 -0.2435683,-0.23392 -0.2435683,-0.6246 0,-0.45578 0.3038574,-0.68729 0.306269,-0.23151 0.9115723,-0.23151 H 9.343918 v -0.0434 q 0,-0.30627 -0.2025716,-0.47267 -0.2001601,-0.16881 -0.5643067,-0.16881 -0.2315104,0 -0.450963,0.0555 -0.2194526,0.0555 -0.4220242,0.16639 v -0.40996 q 0.2435682,-0.094 0.4726671,-0.13987 0.2290989,-0.0482 0.4461399,-0.0482 0.5860107,0 0.8753988,0.30385 0.289388,0.30386 0.289388,0.92122 z"
         style="font-size:4.93888903px;stroke-width:0.26458332"
         id="path1109"
         inkscape:connector-curvature="0" />
      <path
         d="m 11.140535,218.96396 v 0.76688 h 0.913984 v 0.34485 h -0.913984 v 1.46624 q 0,0.33038 0.08923,0.42443 0.09164,0.094 0.36897,0.094 h 0.455786 v 0.37138 h -0.455786 q -0.513664,0 -0.709001,-0.19051 -0.195337,-0.19293 -0.195337,-0.69935 v -1.46624 h -0.325561 v -0.34485 h 0.325561 v -0.76688 z"
         style="font-size:4.93888903px;stroke-width:0.26458332"
         id="path1111"
         inkscape:connector-curvature="0" />
      <path
         d="m 12.592299,221.36588 v -1.63504 h 0.443728 v 1.61816 q 0,0.38344 0.149517,0.57636 0.149517,0.19052 0.448551,0.19052 0.359324,0 0.566719,-0.2291 0.209806,-0.2291 0.209806,-0.6246 v -1.53134 h 0.443728 v 2.70095 H 14.41062 V 222.017 q -0.161575,0.24598 -0.376204,0.36656 -0.212218,0.11817 -0.494372,0.11817 -0.465432,0 -0.706589,-0.28939 -0.241156,-0.28939 -0.241156,-0.84646 z m 1.116555,-1.70015 z"
         style="font-size:4.93888903px;stroke-width:0.26458332"
         id="path1113"
         inkscape:connector-curvature="0" />
      <path
         d="m 17.490191,219.81042 v 0.41961 q -0.188102,-0.0965 -0.390674,-0.14469 -0.202572,-0.0482 -0.419613,-0.0482 -0.330384,0 -0.496782,0.10128 -0.163987,0.10129 -0.163987,0.30386 0,0.15434 0.118167,0.24357 0.118167,0.0868 0.475078,0.1664 l 0.151929,0.0338 q 0.472667,0.10128 0.670416,0.28698 0.20016,0.18327 0.20016,0.51366 0,0.3762 -0.299034,0.59566 -0.296623,0.21945 -0.817522,0.21945 -0.217041,0 -0.453374,-0.0434 -0.233922,-0.041 -0.494371,-0.1254 v -0.4582 q 0.245979,0.12781 0.484724,0.19293 0.238746,0.0627 0.472668,0.0627 0.313503,0 0.482313,-0.10611 0.16881,-0.10852 0.16881,-0.30386 0,-0.18087 -0.12299,-0.27733 -0.120579,-0.0965 -0.532957,-0.18569 l -0.15434,-0.0362 q -0.412378,-0.0868 -0.595657,-0.26528 -0.183279,-0.18086 -0.183279,-0.49437 0,-0.38102 0.270096,-0.58842 0.270095,-0.20739 0.766878,-0.20739 0.24598,0 0.463021,0.0362 0.217041,0.0362 0.40032,0.10852 z"
         style="font-size:4.93888903px;stroke-width:0.26458332"
         id="path1115"
         inkscape:connector-curvature="0" />
    </g>
    <g
       aria-label="Antenna"
       transform="matrix(0,-1,-1,0,102,0)"
       style="font-style:normal;font-weight:normal;font-size:4.93888903px;line-height:1.25;font-family:sans-serif;letter-spacing:0px;word-spacing:0px;fill:#000000;fill-opacity:1;stroke:none;stroke-width:0.26458332"
       id="text991">
      <path
         d="m -224.08075,25.66311 -0.66077,1.791795 h 1.32395 z m -0.27492,-0.479901 h 0.55225 l 1.37218,3.600469 h -0.50643 l -0.32797,-0.92363 h -1.62298 l -0.32798,0.92363 h -0.51366 z"
         style="font-size:4.93888903px;stroke-width:0.26458332"
         id="path1090"
         inkscape:connector-curvature="0" />
      <path
         d="m -219.67964,27.153459 v 1.630219 h -0.44373 v -1.61575 q 0,-0.383439 -0.14951,-0.573953 -0.14952,-0.190513 -0.44856,-0.190513 -0.35932,0 -0.56671,0.229098 -0.2074,0.229099 -0.2074,0.624596 v 1.526522 h -0.44614 v -2.700955 h 0.44614 v 0.419613 q 0.15917,-0.243568 0.37379,-0.364147 0.21705,-0.120578 0.4992,-0.120578 0.46543,0 0.70418,0.289388 0.23874,0.286976 0.23874,0.84646 z"
         style="font-size:4.93888903px;stroke-width:0.26458332"
         id="path1092"
         inkscape:connector-curvature="0" />
      <path
         d="m -218.35569,25.315845 v 0.766878 h 0.91399 v 0.344854 h -0.91399 v 1.466233 q 0,0.330385 0.0892,0.424436 0.0916,0.09405 0.36897,0.09405 h 0.45579 v 0.371381 h -0.45579 q -0.51366,0 -0.709,-0.190514 -0.19534,-0.192925 -0.19534,-0.699354 v -1.466233 h -0.32556 v -0.344854 h 0.32556 v -0.766878 z"
         style="font-size:4.93888903px;stroke-width:0.26458332"
         id="path1094"
         inkscape:connector-curvature="0" />
      <path
         d="m -214.54782,27.322269 v 0.217041 h -2.04019 q 0.0289,0.458197 0.27492,0.699354 0.24839,0.238745 0.68971,0.238745 0.25562,0 0.49437,-0.0627 0.24115,-0.0627 0.47749,-0.188102 v 0.419613 q -0.23875,0.101286 -0.48955,0.15434 -0.2508,0.05305 -0.50884,0.05305 -0.6463,0 -1.02492,-0.376204 -0.3762,-0.376204 -0.3762,-1.017681 0,-0.663181 0.35691,-1.051443 0.35932,-0.390674 0.96704,-0.390674 0.54501,0 0.86093,0.352089 0.31833,0.349677 0.31833,0.952569 z m -0.44373,-0.130225 q -0.005,-0.364147 -0.20499,-0.581188 -0.19774,-0.217041 -0.52572,-0.217041 -0.37138,0 -0.59565,0.209807 -0.22187,0.209806 -0.25563,0.590833 z"
         style="font-size:4.93888903px;stroke-width:0.26458332"
         id="path1096"
         inkscape:connector-curvature="0" />
      <path
         d="m -211.57436,27.153459 v 1.630219 h -0.44373 v -1.61575 q 0,-0.383439 -0.14952,-0.573953 -0.14952,-0.190513 -0.44855,-0.190513 -0.35932,0 -0.56672,0.229098 -0.20739,0.229099 -0.20739,0.624596 v 1.526522 h -0.44614 v -2.700955 h 0.44614 v 0.419613 q 0.15916,-0.243568 0.37379,-0.364147 0.21704,-0.120578 0.49919,-0.120578 0.46544,0 0.70418,0.289388 0.23875,0.286976 0.23875,0.84646 z"
         style="font-size:4.93888903px;stroke-width:0.26458332"
         id="path1098"
         inkscape:connector-curvature="0" />
      <path
         d="m -208.44415,27.153459 v 1.630219 h -0.44373 v -1.61575 q 0,-0.383439 -0.14951,-0.573953 -0.14952,-0.190513 -0.44856,-0.190513 -0.35932,0 -0.56671,0.229098 -0.2074,0.229099 -0.2074,0.624596 v 1.526522 h -0.44614 v -2.700955 h 0.44614 v 0.419613 q 0.15916,-0.243568 0.37379,-0.364147 0.21705,-0.120578 0.4992,-0.120578 0.46543,0 0.70418,0.289388 0.23874,0.286976 0.23874,0.84646 z"
         style="font-size:4.93888903px;stroke-width:0.26458332"
         id="path1100"
         inkscape:connector-curvature="0" />
      <path
         d="m -206.33162,27.425966 q -0.53778,0 -0.74517,0.12299 -0.2074,0.12299 -0.2074,0.419612 0,0.236334 0.15435,0.376205 0.15675,0.137459 0.42443,0.137459 0.36897,0 0.59083,-0.260449 0.22428,-0.262861 0.22428,-0.696943 v -0.09887 z m 0.88505,-0.183279 v 1.540991 h -0.44373 v -0.409966 q -0.15193,0.24598 -0.37862,0.364146 -0.22668,0.115755 -0.55466,0.115755 -0.41479,0 -0.66077,-0.23151 -0.24356,-0.233922 -0.24356,-0.624596 0,-0.455786 0.30385,-0.687296 0.30627,-0.231511 0.91158,-0.231511 h 0.62218 v -0.04341 q 0,-0.306269 -0.20257,-0.472667 -0.20016,-0.16881 -0.56431,-0.16881 -0.23151,0 -0.45096,0.05547 -0.21945,0.05547 -0.42202,0.166398 v -0.409966 q 0.24356,-0.09405 0.47266,-0.139871 0.2291,-0.04823 0.44614,-0.04823 0.58601,0 0.8754,0.303857 0.28939,0.303858 0.28939,0.921219 z"
         style="font-size:4.93888903px;stroke-width:0.26458332"
         id="path1102"
         inkscape:connector-curvature="0" />
    </g>
    <g
       aria-label="Air Quality"
       transform="matrix(-0.70710678,-0.70710678,-0.70710678,0.70710678,102,0)"
       style="font-style:normal;font-weight:normal;font-size:4.93888903px;line-height:1.25;font-family:sans-serif;letter-spacing:0px;word-spacing:0px;fill:#000000;fill-opacity:1;stroke:none;stroke-width:0.26458332"
       id="text995">
      <path
         d="m -127.17074,185.70875 -0.66077,1.79179 h 1.32395 z m -0.27492,-0.4799 h 0.55225 l 1.37218,3.60047 h -0.50643 l -0.32797,-0.92363 h -1.62299 l -0.32797,0.92363 h -0.51367 z"
         style="font-size:4.93888903px;stroke-width:0.26458332"
         id="path1069"
         inkscape:connector-curvature="0" />
      <path
         d="m -125.0148,186.12836 h 0.44372 v 2.70096 h -0.44372 z m 0,-1.05144 h 0.44372 v 0.56189 h -0.44372 z"
         style="font-size:4.93888903px;stroke-width:0.26458332"
         id="path1071"
         inkscape:connector-curvature="0" />
      <path
         d="m -122.07751,186.54315 q -0.0748,-0.0434 -0.16399,-0.0627 -0.0868,-0.0217 -0.19293,-0.0217 -0.3762,0 -0.57877,0.24598 -0.20016,0.24357 -0.20016,0.70177 v 1.42283 h -0.44614 v -2.70096 h 0.44614 v 0.41961 q 0.13987,-0.24598 0.36414,-0.36414 0.22428,-0.12058 0.54502,-0.12058 0.0458,0 0.10128,0.007 0.0555,0.005 0.12299,0.0169 z"
         style="font-size:4.93888903px;stroke-width:0.26458332"
         id="path1073"
         inkscape:connector-curvature="0" />
      <path
         d="m -118.56145,185.55923 q -0.53054,0 -0.84405,0.3955 -0.31109,0.39549 -0.31109,1.07797 0,0.68006 0.31109,1.07556 0.31351,0.39549 0.84405,0.39549 0.53054,0 0.83923,-0.39549 0.31109,-0.3955 0.31109,-1.07556 0,-0.68248 -0.31109,-1.07797 -0.30869,-0.3955 -0.83923,-0.3955 z m 0.68247,3.20497 0.64148,0.70177 h -0.58842 l -0.53296,-0.57637 q -0.0796,0.005 -0.12299,0.007 -0.041,0.002 -0.0796,0.002 -0.75964,0 -1.21543,-0.50643 -0.45337,-0.50884 -0.45337,-1.36012 0,-0.8537 0.45337,-1.36013 0.45579,-0.50884 1.21543,-0.50884 0.75723,0 1.21061,0.50884 0.45337,0.50643 0.45337,1.36013 0,0.62701 -0.25321,1.07315 -0.25081,0.44613 -0.7283,0.65835 z"
         style="font-size:4.93888903px;stroke-width:0.26458332"
         id="path1075"
         inkscape:connector-curvature="0" />
      <path
         d="m -116.20053,187.7634 v -1.63504 h 0.44373 v 1.61816 q 0,0.38344 0.14952,0.57637 0.14952,0.19051 0.44855,0.19051 0.35932,0 0.56672,-0.2291 0.2098,-0.2291 0.2098,-0.62459 v -1.53135 h 0.44373 v 2.70096 h -0.44373 v -0.41479 q -0.16157,0.24598 -0.3762,0.36655 -0.21222,0.11817 -0.49437,0.11817 -0.46543,0 -0.70659,-0.28939 -0.24116,-0.28939 -0.24116,-0.84646 z m 1.11656,-1.70015 z"
         style="font-size:4.93888903px;stroke-width:0.26458332"
         id="path1077"
         inkscape:connector-curvature="0" />
      <path
         d="m -111.79701,187.4716 q -0.53777,0 -0.74517,0.12299 -0.20739,0.12299 -0.20739,0.41962 0,0.23633 0.15434,0.3762 0.15675,0.13746 0.42443,0.13746 0.36897,0 0.59084,-0.26045 0.22427,-0.26286 0.22427,-0.69694 v -0.0989 z m 0.88505,-0.18328 v 1.541 h -0.44373 v -0.40997 q -0.15193,0.24598 -0.37861,0.36415 -0.22669,0.11575 -0.55467,0.11575 -0.41478,0 -0.66076,-0.23151 -0.24357,-0.23392 -0.24357,-0.6246 0,-0.45578 0.30385,-0.68729 0.30627,-0.23151 0.91158,-0.23151 h 0.62218 v -0.0434 q 0,-0.30627 -0.20257,-0.47267 -0.20016,-0.16881 -0.56431,-0.16881 -0.23151,0 -0.45096,0.0555 -0.21945,0.0555 -0.42202,0.1664 v -0.40997 q 0.24356,-0.0941 0.47266,-0.13987 0.2291,-0.0482 0.44614,-0.0482 0.58601,0 0.8754,0.30386 0.28939,0.30385 0.28939,0.92121 z"
         style="font-size:4.93888903px;stroke-width:0.26458332"
         id="path1079"
         inkscape:connector-curvature="0" />
      <path
         d="m -109.99798,185.07692 h 0.44373 v 3.7524 h -0.44373 z"
         style="font-size:4.93888903px;stroke-width:0.26458332"
         id="path1081"
         inkscape:connector-curvature="0" />
      <path
         d="m -108.62579,186.12836 h 0.44372 v 2.70096 h -0.44372 z m 0,-1.05144 h 0.44372 v 0.56189 h -0.44372 z"
         style="font-size:4.93888903px;stroke-width:0.26458332"
         id="path1083"
         inkscape:connector-curvature="0" />
      <path
         d="m -106.81471,185.36148 v 0.76688 h 0.91399 v 0.34485 h -0.91399 v 1.46624 q 0,0.33038 0.0892,0.42443 0.0916,0.0941 0.36897,0.0941 h 0.45579 v 0.37139 h -0.45579 q -0.51366,0 -0.709,-0.19052 -0.19534,-0.19292 -0.19534,-0.69935 v -1.46624 h -0.32556 v -0.34485 h 0.32556 v -0.76688 z"
         style="font-size:4.93888903px;stroke-width:0.26458332"
         id="path1085"
         inkscape:connector-curvature="0" />
      <path
         d="m -104.19334,189.08012 q -0.1881,0.48231 -0.36655,0.62942 -0.17846,0.1471 -0.47749,0.1471 h -0.3545 v -0.37138 h 0.26044 q 0.18328,0 0.28457,-0.0868 0.10129,-0.0868 0.22428,-0.40996 l 0.0796,-0.20257 -1.09244,-2.65755 h 0.47025 l 0.84405,2.11253 0.84405,-2.11253 h 0.47026 z"
         style="font-size:4.93888903px;stroke-width:0.26458332"
         id="path1087"
         inkscape:connector-curvature="0" />
    </g>
    <g
       aria-label="IMU"
       style="font-style:normal;font-weight:normal;font-size:4.93888903px;line-height:1.25;font-family:sans-serif;letter-spacing:0px;word-spacing:0px;fill:#000000;fill-opacity:1;stroke:none;stroke-width:0.26458332"
       id="text999"
       transform="matrix(-1,0,0,1,102,0)">
      <path
         d="m 46.259265,242.10499 h 0.487136 v 3.60047 h -0.487136 z"
         style="font-size:4.93888903px;stroke-width:0.26458332"
         id="path1062"
         inkscape:connector-curvature="0" />
      <path
         d="m 47.715851,242.10499 h 0.725882 l 0.918807,2.45015 0.92363,-2.45015 h 0.725882 v 3.60047 h -0.475079 v -3.16156 l -0.928453,2.46944 h -0.489548 l -0.928454,-2.46944 v 3.16156 h -0.472667 z"
         style="font-size:4.93888903px;stroke-width:0.26458332"
         id="path1064"
         inkscape:connector-curvature="0" />
      <path
         d="m 51.921624,242.10499 h 0.489548 v 2.18729 q 0,0.57878 0.209806,0.8344 0.209807,0.25322 0.680062,0.25322 0.467844,0 0.67765,-0.25322 0.209807,-0.25562 0.209807,-0.8344 v -2.18729 h 0.489548 v 2.24758 q 0,0.70418 -0.349677,1.0635 -0.347266,0.35933 -1.027328,0.35933 -0.682473,0 -1.032151,-0.35933 -0.347265,-0.35932 -0.347265,-1.0635 z"
         style="font-size:4.93888903px;stroke-width:0.26458332"
         id="path1066"
         inkscape:connector-curvature="0" />
    </g>
    <g
       aria-label="GPS"
       style="font-style:normal;font-weight:normal;font-size:10.58333302px;line-height:1.25;font-family:sans-serif;letter-spacing:0px;word-spacing:0px;fill:#000000;fill-opacity:1;stroke:none;stroke-width:0.26458332"
       id="text1003"
       transform="matrix(-1,0,0,1,102,0)">
      <path
         d="m 76.591507,246.96809 v -1.10519 h -0.909505 v -0.45751 h 1.46072 v 1.76665 q -0.322461,0.22875 -0.711068,0.34726 -0.388606,0.11576 -0.829579,0.11576 -0.964626,0 -1.510329,-0.56224 -0.542948,-0.565 -0.542948,-1.57097 0,-1.00872 0.542948,-1.57096 0.545703,-0.565 1.510329,-0.565 0.402388,0 0.763434,0.0992 0.363802,0.0992 0.669726,0.29215 v 0.59255 q -0.30868,-0.26182 -0.655946,-0.39412 -0.347266,-0.13229 -0.73036,-0.13229 -0.755165,0 -1.135504,0.42168 -0.377582,0.42168 -0.377582,1.25677 0,0.83234 0.377582,1.25402 0.380339,0.42168 1.135504,0.42168 0.2949,0 0.52641,-0.0496 0.231511,-0.0524 0.416168,-0.15985 z"
         style="font-size:5.64444447px;stroke-width:0.26458332"
         id="path1055"
         inkscape:connector-curvature="0" />
      <path
         d="m 78.716442,243.89782 v 1.54616 h 0.700043 q 0.388607,0 0.600825,-0.2012 0.212218,-0.20119 0.212218,-0.57326 0,-0.36932 -0.212218,-0.57051 -0.212218,-0.20119 -0.600825,-0.20119 z m -0.556728,-0.45751 h 1.256771 q 0.691775,0 1.044553,0.31419 0.355534,0.31144 0.355534,0.91502 0,0.60909 -0.355534,0.92053 -0.352778,0.31143 -1.044553,0.31143 h -0.700043 v 1.65365 h -0.556728 z"
         style="font-size:5.64444447px;stroke-width:0.26458332"
         id="path1057"
         inkscape:connector-curvature="0" />
      <path
         d="m 84.030157,243.57536 v 0.54294 q -0.316949,-0.15158 -0.598069,-0.226 -0.281119,-0.0744 -0.542947,-0.0744 -0.454752,0 -0.702799,0.17639 -0.245291,0.17639 -0.245291,0.50161 0,0.27285 0.162608,0.41341 0.165365,0.1378 0.622874,0.22324 l 0.336241,0.0689 q 0.622873,0.11851 0.917774,0.41892 0.297656,0.29766 0.297656,0.79927 0,0.59807 -0.402387,0.90675 -0.399631,0.30868 -1.174089,0.30868 -0.292144,0 -0.622873,-0.0662 -0.327973,-0.0661 -0.680751,-0.19568 v -0.57326 q 0.338997,0.19016 0.664214,0.28663 0.325217,0.0965 0.63941,0.0965 0.476801,0 0.735872,-0.18741 0.259072,-0.18742 0.259072,-0.53468 0,-0.30317 -0.187414,-0.47405 -0.184657,-0.17087 -0.609092,-0.25631 l -0.338998,-0.0662 q -0.622873,-0.12402 -0.901237,-0.38861 -0.278364,-0.26458 -0.278364,-0.73587 0,-0.5457 0.383095,-0.85989 0.385851,-0.3142 1.06109,-0.3142 0.289388,0 0.5898,0.0524 0.300412,0.0524 0.614605,0.1571 z"
         style="font-size:5.64444447px;stroke-width:0.26458332"
         id="path1059"
         inkscape:connector-curvature="0" />
    </g>
    <g
       aria-label="SD
Storage"
       style="font-style:normal;font-weight:normal;font-size:4.93888903px;line-height:1.25;font-family:sans-serif;letter-spacing:0px;word-spacing:0px;fill:#000000;fill-opacity:1;stroke:none;stroke-width:0.26458332"
       id="text1007"
       transform="matrix(-1,0,0,1,102,0)">
      <path
         d="m 68.124111,263.58349 v 0.47508 q -0.277331,-0.13263 -0.52331,-0.19775 -0.24598,-0.0651 -0.475079,-0.0651 -0.397909,0 -0.61495,0.15434 -0.214629,0.15434 -0.214629,0.43891 0,0.23874 0.142282,0.36173 0.144694,0.12058 0.545015,0.19534 l 0.294211,0.0603 q 0.545014,0.1037 0.803051,0.36656 0.26045,0.26045 0.26045,0.69935 0,0.52331 -0.352089,0.79341 -0.349677,0.27009 -1.027328,0.27009 -0.255626,0 -0.545014,-0.0579 -0.286976,-0.0579 -0.595657,-0.17122 v -0.5016 q 0.296623,0.16639 0.581188,0.2508 0.284565,0.0844 0.559483,0.0844 0.417201,0 0.643889,-0.16398 0.226687,-0.16399 0.226687,-0.46785 0,-0.26527 -0.163986,-0.41479 -0.161575,-0.14951 -0.532957,-0.22427 l -0.296623,-0.0579 q -0.545014,-0.10852 -0.788582,-0.34003 -0.243568,-0.23151 -0.243568,-0.64389 0,-0.47749 0.335208,-0.75241 0.337619,-0.27492 0.928453,-0.27492 0.253214,0 0.516075,0.0458 0.262861,0.0458 0.53778,0.13746 z"
         style="font-size:4.93888903px;stroke-width:0.26458332"
         id="path1036"
         inkscape:connector-curvature="0" />
      <path
         d="m 69.587932,263.86565 v 2.79983 h 0.588422 q 0.745174,0 1.090028,-0.33762 0.347266,-0.33762 0.347266,-1.06592 0,-0.72347 -0.347266,-1.05867 -0.344854,-0.33762 -1.090028,-0.33762 z m -0.487137,-0.40032 h 1.0008 q 1.046621,0 1.536169,0.43649 0.489548,0.43408 0.489548,1.36012 0,0.93087 -0.49196,1.36736 -0.49196,0.4365 -1.533757,0.4365 h -1.0008 z"
         style="font-size:4.93888903px;stroke-width:0.26458332"
         id="path1038"
         inkscape:connector-curvature="0" />
      <path
         d="m 68.124111,269.7571 v 0.47508 q -0.277331,-0.13263 -0.52331,-0.19775 -0.24598,-0.0651 -0.475079,-0.0651 -0.397909,0 -0.61495,0.15434 -0.214629,0.15434 -0.214629,0.43891 0,0.23874 0.142282,0.36173 0.144694,0.12058 0.545015,0.19534 l 0.294211,0.0603 q 0.545014,0.1037 0.803051,0.36656 0.26045,0.26045 0.26045,0.69935 0,0.52331 -0.352089,0.79341 -0.349677,0.27009 -1.027328,0.27009 -0.255626,0 -0.545014,-0.0579 -0.286976,-0.0579 -0.595657,-0.17123 v -0.5016 q 0.296623,0.1664 0.581188,0.2508 0.284565,0.0844 0.559483,0.0844 0.417201,0 0.643889,-0.16399 0.226687,-0.16399 0.226687,-0.46784 0,-0.26528 -0.163986,-0.41479 -0.161575,-0.14952 -0.532957,-0.22428 l -0.296623,-0.0579 q -0.545014,-0.10852 -0.788582,-0.34003 -0.243568,-0.23151 -0.243568,-0.64389 0,-0.47749 0.335208,-0.75241 0.337619,-0.27491 0.928453,-0.27491 0.253214,0 0.516075,0.0458 0.262861,0.0458 0.53778,0.13745 z"
         style="font-size:4.93888903px;stroke-width:0.26458332"
         id="path1040"
         inkscape:connector-curvature="0" />
      <path
         d="m 69.520408,269.77157 v 0.76688 h 0.913984 v 0.34486 h -0.913984 v 1.46623 q 0,0.33038 0.08923,0.42443 0.09164,0.0941 0.36897,0.0941 h 0.455786 v 0.37138 h -0.455786 q -0.513664,0 -0.709001,-0.19052 -0.195337,-0.19292 -0.195337,-0.69935 v -1.46623 h -0.325562 v -0.34486 h 0.325562 v -0.76688 z"
         style="font-size:4.93888903px;stroke-width:0.26458332"
         id="path1042"
         inkscape:connector-curvature="0" />
      <path
         d="m 72.064611,270.84954 q -0.356912,0 -0.564307,0.27975 -0.207395,0.27733 -0.207395,0.76205 0,0.48473 0.204984,0.76447 0.207394,0.27733 0.566718,0.27733 0.3545,0 0.561895,-0.27974 0.207395,-0.27975 0.207395,-0.76206 0,-0.4799 -0.207395,-0.75964 -0.207395,-0.28216 -0.561895,-0.28216 z m 0,-0.3762 q 0.578776,0 0.909161,0.3762 0.330384,0.37621 0.330384,1.0418 0,0.66318 -0.330384,1.0418 -0.330385,0.3762 -0.909161,0.3762 -0.581188,0 -0.911572,-0.3762 -0.327974,-0.37862 -0.327974,-1.0418 0,-0.66559 0.327974,-1.0418 0.330384,-0.3762 0.911572,-0.3762 z"
         style="font-size:4.93888903px;stroke-width:0.26458332"
         id="path1044"
         inkscape:connector-curvature="0" />
      <path
         d="m 75.604791,270.95324 q -0.07476,-0.0434 -0.163986,-0.0627 -0.08682,-0.0217 -0.192925,-0.0217 -0.376205,0 -0.578776,0.24598 -0.200161,0.24356 -0.200161,0.70176 v 1.42283 h -0.446139 v -2.70096 h 0.446139 v 0.41961 q 0.139871,-0.24597 0.364147,-0.36414 0.224276,-0.12058 0.545014,-0.12058 0.04582,0 0.101286,0.007 0.05547,0.005 0.12299,0.0169 z"
         style="font-size:4.93888903px;stroke-width:0.26458332"
         id="path1046"
         inkscape:connector-curvature="0" />
      <path
         d="m 77.297711,271.8817 q -0.53778,0 -0.745175,0.12298 -0.207394,0.12299 -0.207394,0.41962 0,0.23633 0.15434,0.3762 0.156752,0.13746 0.424436,0.13746 0.36897,0 0.590834,-0.26045 0.224275,-0.26286 0.224275,-0.69694 v -0.0989 z m 0.885045,-0.18328 v 1.54099 h -0.443729 v -0.40997 q -0.151928,0.24598 -0.378616,0.36415 -0.226687,0.11575 -0.55466,0.11575 -0.41479,0 -0.660769,-0.23151 -0.243569,-0.23392 -0.243569,-0.62459 0,-0.45579 0.303858,-0.6873 0.306269,-0.23151 0.911572,-0.23151 h 0.622184 v -0.0434 q 0,-0.30627 -0.202571,-0.47267 -0.20016,-0.16881 -0.564307,-0.16881 -0.23151,0 -0.450963,0.0555 -0.219452,0.0555 -0.422024,0.1664 v -0.40997 q 0.243568,-0.0941 0.472667,-0.13987 0.229099,-0.0482 0.44614,-0.0482 0.586011,0 0.875399,0.30386 0.289388,0.30385 0.289388,0.92122 z"
         style="font-size:4.93888903px;stroke-width:0.26458332"
         id="path1048"
         inkscape:connector-curvature="0" />
      <path
         d="m 80.874065,271.85758 q 0,-0.48231 -0.20016,-0.74759 -0.197749,-0.26527 -0.557072,-0.26527 -0.356912,0 -0.557072,0.26527 -0.197749,0.26528 -0.197749,0.74759 0,0.4799 0.197749,0.74517 0.20016,0.26528 0.557072,0.26528 0.359323,0 0.557072,-0.26528 0.20016,-0.26527 0.20016,-0.74517 z m 0.443728,1.04662 q 0,0.68971 -0.306269,1.02492 -0.306269,0.33761 -0.938099,0.33761 -0.233922,0 -0.441317,-0.0362 -0.207395,-0.0338 -0.402732,-0.10611 v -0.43167 q 0.195337,0.10611 0.385851,0.15675 0.190514,0.0506 0.388262,0.0506 0.436494,0 0.653535,-0.2291 0.217041,-0.22669 0.217041,-0.6873 v -0.21945 q -0.137459,0.23874 -0.352089,0.35691 -0.214629,0.11817 -0.513664,0.11817 -0.496782,0 -0.80064,-0.37862 -0.303857,-0.37861 -0.303857,-1.00321 0,-0.62701 0.303857,-1.00562 0.303858,-0.37862 0.80064,-0.37862 0.299035,0 0.513664,0.11817 0.21463,0.11816 0.352089,0.35691 v -0.40997 h 0.443728 z"
         style="font-size:4.93888903px;stroke-width:0.26458332"
         id="path1050"
         inkscape:connector-curvature="0" />
      <path
         d="m 84.542058,271.778 v 0.21704 h -2.040186 q 0.02894,0.4582 0.274919,0.69935 0.248391,0.23875 0.689708,0.23875 0.255626,0 0.494371,-0.0627 0.241157,-0.0627 0.47749,-0.1881 v 0.41961 q -0.238745,0.10128 -0.489548,0.15434 -0.250803,0.0531 -0.50884,0.0531 -0.6463,0 -1.024916,-0.3762 -0.376205,-0.37621 -0.376205,-1.01768 0,-0.66318 0.356912,-1.05145 0.359324,-0.39067 0.967038,-0.39067 0.545014,0 0.86093,0.35209 0.318327,0.34968 0.318327,0.95257 z m -0.443729,-0.13023 q -0.0048,-0.36414 -0.204983,-0.58118 -0.197748,-0.21705 -0.525722,-0.21705 -0.371381,0 -0.595657,0.20981 -0.221864,0.20981 -0.255626,0.59083 z"
         style="font-size:4.93888903px;stroke-width:0.26458332"
         id="path1052"
         inkscape:connector-curvature="0" />
    </g>
    <g
       aria-label="ATA
ASC Inc"
       style="font-style:normal;font-weight:normal;font-size:10.58333302px;line-height:1.25;font-family:sans-serif;letter-spacing:0px;word-spacing:0px;fill:#000000;fill-opacity:1;stroke:none;stroke-width:0.26458332"
       id="text1013"
       transform="matrix(-1,0,0,1,102,0)">
      <path
         d="m 39.164195,272.13872 -1.415935,3.83956 h 2.837036 z m -0.589112,-1.02836 h 1.183391 l 2.940388,7.71529 h -1.085205 l -0.702799,-1.9792 h -3.477824 l -0.702799,1.9792 h -1.100708 z"
         style="stroke-width:0.26458332"
         id="path1017"
         inkscape:connector-curvature="0" />
      <path
         d="m 41.934052,271.11036 h 6.526733 v 0.8785 h -2.738851 v 6.83679 h -1.049032 v -6.83679 h -2.73885 z"
         style="stroke-width:0.26458332"
         id="path1019"
         inkscape:connector-curvature="0" />
      <path
         d="m 51.225474,272.13872 -1.415934,3.83956 h 2.837036 z m -0.589111,-1.02836 h 1.18339 l 2.940389,7.71529 h -1.085205 l -0.7028,-1.9792 h -3.477823 l -0.7028,1.9792 h -1.100708 z"
         style="stroke-width:0.26458332"
         id="path1021"
         inkscape:connector-curvature="0" />
      <path
         d="m 39.164195,285.36789 -1.415935,3.83956 h 2.837036 z m -0.589112,-1.02836 h 1.183391 l 2.940388,7.71529 h -1.085205 l -0.702799,-1.97921 h -3.477824 l -0.702799,1.97921 h -1.100708 z"
         style="stroke-width:0.26458332"
         id="path1023"
         inkscape:connector-curvature="0" />
      <path
         d="m 48.450449,284.59274 v 1.01803 q -0.594278,-0.28422 -1.121378,-0.42375 -0.5271,-0.13952 -1.018026,-0.13952 -0.852661,0 -1.317749,0.33072 -0.45992,0.33073 -0.45992,0.94052 0,0.51159 0.304891,0.77514 0.310059,0.25838 1.167887,0.41858 l 0.630453,0.12919 q 1.167887,0.22221 1.720825,0.78548 0.558105,0.55811 0.558105,1.49862 0,1.12138 -0.754476,1.70015 -0.749308,0.57878 -2.201416,0.57878 -0.54777,0 -1.167887,-0.12402 -0.614949,-0.12403 -1.276408,-0.36691 v -1.07486 q 0.63562,0.35656 1.245402,0.53743 0.609782,0.18087 1.198893,0.18087 0.894003,0 1.379761,-0.3514 0.485759,-0.3514 0.485759,-1.00252 0,-0.56845 -0.3514,-0.88884 -0.346232,-0.32039 -1.142049,-0.48059 l -0.63562,-0.12402 q -1.167888,-0.23255 -1.68982,-0.72864 -0.521932,-0.4961 -0.521932,-1.37976 0,-1.0232 0.718303,-1.61231 0.72347,-0.58911 1.989542,-0.58911 0.542603,0 1.105876,0.0982 0.563273,0.0982 1.152384,0.29455 z"
         style="stroke-width:0.26458332"
         id="path1025"
         inkscape:connector-curvature="0" />
      <path
         d="m 56.320769,284.93381 v 1.10071 q -0.527099,-0.49093 -1.126546,-0.73381 -0.594279,-0.24288 -1.266072,-0.24288 -1.322917,0 -2.025716,0.81132 -0.7028,0.80615 -0.7028,2.33578 0,1.52445 0.7028,2.33577 0.702799,0.80615 2.025716,0.80615 0.671793,0 1.266072,-0.24288 0.599447,-0.24288 1.126546,-0.7338 v 1.09037 q -0.54777,0.37207 -1.162719,0.55811 -0.609782,0.18603 -1.291911,0.18603 -1.751831,0 -2.759521,-1.0697 -1.007691,-1.07487 -1.007691,-2.93005 0,-1.86036 1.007691,-2.93006 1.00769,-1.07487 2.759521,-1.07487 0.692464,0 1.302246,0.18604 0.61495,0.18086 1.152384,0.54777 z"
         style="stroke-width:0.26458332"
         id="path1027"
         inkscape:connector-curvature="0" />
      <path
         d="m 61.297211,284.33953 h 1.043864 v 7.71529 h -1.043864 z"
         style="stroke-width:0.26458332"
         id="path1029"
         inkscape:connector-curvature="0" />
      <path
         d="m 69.188201,288.56149 v 3.49333 h -0.950846 v -3.46232 q 0,-0.82166 -0.320394,-1.2299 -0.320394,-0.40824 -0.961182,-0.40824 -0.769979,0 -1.214396,0.49092 -0.444417,0.49093 -0.444417,1.33842 v 3.27112 h -0.956014 v -5.78776 h 0.956014 v 0.89917 q 0.341064,-0.52193 0.800985,-0.78032 0.465087,-0.25838 1.069702,-0.25838 0.997355,0 1.508951,0.62012 0.511597,0.61495 0.511597,1.81384 z"
         style="stroke-width:0.26458332"
         id="path1031"
         inkscape:connector-curvature="0" />
      <path
         d="m 75.249847,286.48927 v 0.88883 q -0.403076,-0.22221 -0.81132,-0.33073 -0.403076,-0.11368 -0.816487,-0.11368 -0.925008,0 -1.436605,0.58911 -0.511597,0.58394 -0.511597,1.64331 0,1.05936 0.511597,1.64848 0.511597,0.58394 1.436605,0.58394 0.413411,0 0.816487,-0.10852 0.408244,-0.11369 0.81132,-0.3359 v 0.8785 q -0.397908,0.18604 -0.826823,0.27905 -0.423746,0.093 -0.904337,0.093 -1.307414,0 -2.077393,-0.82165 -0.769979,-0.82166 -0.769979,-2.21692 0,-1.41594 0.775147,-2.22726 0.780314,-0.81132 2.134237,-0.81132 0.439249,0 0.857828,0.093 0.418579,0.0879 0.81132,0.26872 z"
         style="stroke-width:0.26458332"
         id="path1033"
         inkscape:connector-curvature="0" />
    </g>
  </g>
</svg>
